# xmcd CD database file
#
# Track frame offsets:
#	150
#	4017
#	20883
#	24074
#	45259
#	63912
#	81899
#
# Disc length: 1336 seconds
#
# Revision: 0
# Processed by: cddbd v1.5.2PL0 Copyright (c) Steve Scherf et al.
# Submitted via: jetAudio 7
#
DISCID=43053607
DTITLE=Lana Martino-Smith - Cinderella sings the blues
DYEAR=1900
DGENRE=Blues
TTITLE0=So long
TTITLE1=Moanin'
TTITLE2=Walkin'
TTITLE3=Cry baby
TTITLE4=Cinderella sings the blues
TTITLE5=Crippled heart blues
TTITLE6=Nowhere at all
EXTD=
EXTT0=
EXTT1=
EXTT2=
EXTT3=
EXTT4=
EXTT5=
EXTT6=
PLAYORDER=
